<svg xmlns="http://www.w3.org/2000/svg" xmlns:xlink="http://www.w3.org/1999/xlink" width="201" height="80" viewBox="0 0 201 80">
  <defs>
    <filter id="Rectangle_77" x="0" y="0" width="201" height="80" filterUnits="userSpaceOnUse">
      <feOffset dy="3" input="SourceAlpha"/>
      <feGaussianBlur stdDeviation="3" result="blur"/>
      <feFlood flood-opacity="0.161"/>
      <feComposite operator="in" in2="blur"/>
      <feComposite in="SourceGraphic"/>
    </filter>
  </defs>
  <g id="Group_16" data-name="Group 16" transform="translate(-182 -8362)">
    <g transform="matrix(1, 0, 0, 1, 182, 8362)" filter="url(#Rectangle_77)">
      <rect id="Rectangle_77-2" data-name="Rectangle 77" width="183" height="62" rx="10" transform="translate(9 6)"/>
    </g>
    <text id="Add_Albino" data-name="Add Albino" transform="translate(259 8404)" fill="#fff" font-size="16" font-family="Jost-Medium, Jost" font-weight="500"><tspan x="0" y="0">ADD ALBINO</tspan></text>
    <g id="metamask.e9805e8ae25040aa7a3f973251ed2088" transform="translate(208.195 8382.77)">
      <path id="Path_15" data-name="Path 15" d="M188.9,35.5,174.6,46.122l2.645-6.267Z" transform="translate(-154.074 -35.5)" fill="#e2761b" stroke="#e2761b" stroke-linecap="round" stroke-linejoin="round" stroke-width="1"/>
      <g id="Group_2" data-name="Group 2" transform="translate(0.302 0)">
        <path id="Path_16" data-name="Path 16" d="M44.4,35.5,58.587,46.223l-2.515-6.368Z" transform="translate(-42.891 -35.5)" fill="#e4761b" stroke="#e4761b" stroke-linecap="round" stroke-linejoin="round" stroke-width="1"/>
        <path id="Path_17" data-name="Path 17" d="M215.609,206.8l-3.809,5.836,8.15,2.242,2.343-7.949Z" transform="translate(-186.229 -182.177)" fill="#e4761b" stroke="#e4761b" stroke-linecap="round" stroke-linejoin="round" stroke-width="1"/>
        <path id="Path_18" data-name="Path 18" d="M33.9,206.929l2.329,7.949,8.15-2.242L40.569,206.8Z" transform="translate(-33.9 -182.177)" fill="#e4761b" stroke="#e4761b" stroke-linecap="round" stroke-linejoin="round" stroke-width="1"/>
        <path id="Path_19" data-name="Path 19" d="M90.071,109,87.8,112.437l8.093.359-.287-8.7Z" transform="translate(-80.052 -94.239)" fill="#e4761b" stroke="#e4761b" stroke-linecap="round" stroke-linejoin="round" stroke-width="1"/>
        <path id="Path_20" data-name="Path 20" d="M180.393,108.4l-5.606-5-.187,8.8,8.078-.359Z" transform="translate(-154.376 -93.64)" fill="#e4761b" stroke="#e4761b" stroke-linecap="round" stroke-linejoin="round" stroke-width="1"/>
        <path id="Path_21" data-name="Path 21" d="M106.8,213.749l4.858-2.372-4.2-3.277Z" transform="translate(-96.321 -183.291)" fill="#e4761b" stroke="#e4761b" stroke-linecap="round" stroke-linejoin="round" stroke-width="1"/>
        <path id="Path_22" data-name="Path 22" d="M177.9,211.377l4.873,2.372L182.1,208.1Z" transform="translate(-157.202 -183.291)" fill="#e4761b" stroke="#e4761b" stroke-linecap="round" stroke-linejoin="round" stroke-width="1"/>
      </g>
      <g id="Group_3" data-name="Group 3" transform="translate(10.781 28.087)">
        <path id="Path_23" data-name="Path 23" d="M182.773,233.272,177.9,230.9l.388,3.177-.043,1.337Z" transform="translate(-167.68 -230.9)" fill="#d7c1b3" stroke="#d7c1b3" stroke-linecap="round" stroke-linejoin="round" stroke-width="1"/>
        <path id="Path_24" data-name="Path 24" d="M106.8,233.272l4.528,2.142-.029-1.337.359-3.177Z" transform="translate(-106.8 -230.9)" fill="#d7c1b3" stroke="#d7c1b3" stroke-linecap="round" stroke-linejoin="round" stroke-width="1"/>
      </g>
      <path id="Path_25" data-name="Path 25" d="M114.653,178.6l-4.053-1.193,2.86-1.308Z" transform="translate(-99.273 -155.89)" fill="#233447" stroke="#233447" stroke-linecap="round" stroke-linejoin="round" stroke-width="1"/>
      <path id="Path_26" data-name="Path 26" d="M179.7,178.6l1.193-2.5,2.875,1.308Z" transform="translate(-158.441 -155.89)" fill="#233447" stroke="#233447" stroke-linecap="round" stroke-linejoin="round" stroke-width="1"/>
      <g id="Group_4" data-name="Group 4" transform="translate(6.971 18.197)">
        <path id="Path_27" data-name="Path 27" d="M84.109,212.636l.69-5.836-4.5.129Z" transform="translate(-80.3 -200.375)" fill="#cd6116" stroke="#cd6116" stroke-linecap="round" stroke-linejoin="round" stroke-width="1"/>
        <path id="Path_28" data-name="Path 28" d="M207,206.8l.69,5.836,3.809-5.706Z" transform="translate(-188.788 -200.375)" fill="#cd6116" stroke="#cd6116" stroke-linecap="round" stroke-linejoin="round" stroke-width="1"/>
        <path id="Path_29" data-name="Path 29" d="M182.678,162.1l-8.078.359.747,4.154,1.193-2.5,2.875,1.308Z" transform="translate(-161.045 -162.1)" fill="#cd6116" stroke="#cd6116" stroke-linecap="round" stroke-linejoin="round" stroke-width="1"/>
        <path id="Path_30" data-name="Path 30" d="M91.077,165.42l2.875-1.308,1.179,2.5.762-4.154L87.8,162.1Z" transform="translate(-86.722 -162.1)" fill="#cd6116" stroke="#cd6116" stroke-linecap="round" stroke-linejoin="round" stroke-width="1"/>
      </g>
      <g id="Group_5" data-name="Group 5" transform="translate(8.049 18.197)">
        <path id="Path_31" data-name="Path 31" d="M87.8,162.1l3.392,6.612-.115-3.292Z" transform="translate(-87.8 -162.1)" fill="#e4751f" stroke="#e4751f" stroke-linecap="round" stroke-linejoin="round" stroke-width="1"/>
        <path id="Path_32" data-name="Path 32" d="M207.244,165.42l-.144,3.292,3.407-6.612Z" transform="translate(-189.952 -162.1)" fill="#e4751f" stroke="#e4751f" stroke-linecap="round" stroke-linejoin="round" stroke-width="1"/>
        <path id="Path_33" data-name="Path 33" d="M139.562,164.6l-.762,4.154.949,4.9.216-6.454Z" transform="translate(-131.469 -164.241)" fill="#e4751f" stroke="#e4751f" stroke-linecap="round" stroke-linejoin="round" stroke-width="1"/>
        <path id="Path_34" data-name="Path 34" d="M172.288,164.6l-.388,2.587.173,6.468.963-4.9Z" transform="translate(-159.811 -164.241)" fill="#e4751f" stroke="#e4751f" stroke-linecap="round" stroke-linejoin="round" stroke-width="1"/>
      </g>
      <path id="Path_35" data-name="Path 35" d="M174.063,186.393l-.963,4.9.69.474,4.2-3.277.144-3.292Z" transform="translate(-152.79 -163.682)" fill="#f6851b" stroke="#f6851b" stroke-linecap="round" stroke-linejoin="round" stroke-width="1"/>
      <path id="Path_36" data-name="Path 36" d="M110.6,185.2l.115,3.292,4.2,3.277.69-.474-.949-4.9Z" transform="translate(-99.273 -163.682)" fill="#f6851b" stroke="#f6851b" stroke-linecap="round" stroke-linejoin="round" stroke-width="1"/>
      <path id="Path_37" data-name="Path 37" d="M117.365,249.542l.043-1.337-.359-.316H111.63l-.331.316.029,1.337L106.8,247.4l1.581,1.294,3.205,2.228h5.505l3.22-2.228,1.581-1.294Z" transform="translate(-96.019 -216.942)" fill="#c0ad9e" stroke="#c0ad9e" stroke-linecap="round" stroke-linejoin="round" stroke-width="1"/>
      <path id="Path_38" data-name="Path 38" d="M143.821,228.074l-.69-.474h-3.982l-.69.474-.359,3.177.331-.316h5.419l.359.316Z" transform="translate(-122.82 -199.988)" fill="#161616" stroke="#161616" stroke-linecap="round" stroke-linejoin="round" stroke-width="1"/>
      <g id="Group_6" data-name="Group 6" transform="translate(0 0)">
        <path id="Path_39" data-name="Path 39" d="M192.331,46.812l1.222-5.865L191.728,35.5,177.9,45.763l5.318,4.5,7.518,2.2,1.667-1.94L191.685,50l1.15-1.049-.891-.69,1.15-.877Z" transform="translate(-156.9 -35.5)" fill="#763d16" stroke="#763d16" stroke-linecap="round" stroke-linejoin="round" stroke-width="1"/>
        <path id="Path_40" data-name="Path 40" d="M31.8,40.948l1.222,5.865-.776.575,1.15.877-.877.69L33.669,50l-.719.517,1.653,1.94,7.518-2.2,5.318-4.5L33.611,35.5Z" transform="translate(-31.8 -35.5)" fill="#763d16" stroke="#763d16" stroke-linecap="round" stroke-linejoin="round" stroke-width="1"/>
      </g>
      <path id="Path_41" data-name="Path 41" d="M215.739,140.4l-7.518-2.2,2.285,3.435-3.407,6.612,4.485-.057h6.684Z" transform="translate(-181.902 -123.438)" fill="#f6851b" stroke="#f6851b" stroke-linecap="round" stroke-linejoin="round" stroke-width="1"/>
      <path id="Path_42" data-name="Path 42" d="M43.919,138.2,36.4,140.4l-2.5,7.791h6.67l4.47.057-3.392-6.612Z" transform="translate(-33.598 -123.438)" fill="#f6851b" stroke="#f6851b" stroke-linecap="round" stroke-linejoin="round" stroke-width="1"/>
      <path id="Path_43" data-name="Path 43" d="M132.643,80l.474-8.294L135.3,65.8h-9.7l2.156,5.908.5,8.294.172,2.616.014,6.44h3.982l.029-6.44Z" transform="translate(-112.117 -61.445)" fill="#f6851b" stroke="#f6851b" stroke-linecap="round" stroke-linejoin="round" stroke-width="1"/>
    </g>
  </g>
</svg>
