<svg xmlns="http://www.w3.org/2000/svg" xmlns:xlink="http://www.w3.org/1999/xlink" width="146" height="146" viewBox="0 0 146 146">
  <defs>
    <filter id="Ellipse_3" x="0" y="0" width="146" height="146" filterUnits="userSpaceOnUse">
      <feOffset dy="3" input="SourceAlpha"/>
      <feGaussianBlur stdDeviation="3" result="blur"/>
      <feFlood flood-opacity="0.161"/>
      <feComposite operator="in" in2="blur"/>
      <feComposite in="SourceGraphic"/>
    </filter>
  </defs>
  <g id="Group_12" data-name="Group 12" transform="translate(-666 -11919)">
    <g transform="matrix(1, 0, 0, 1, 666, 11919)" filter="url(#Ellipse_3)">
      <circle id="Ellipse_3-2" data-name="Ellipse 3" cx="64" cy="64" r="64" transform="translate(9 6)" fill="rgba(255,255,255,0.89)"/>
    </g>
    <path id="icons8-linkedin-2" d="M16.766,59.17H4v-38.3H16.766Zm-6.381-43.4A6.383,6.383,0,1,1,16.766,9.38,6.385,6.385,0,0,1,10.386,15.766Zm52.339,43.4H50.451V40.532c0-4.445-.084-10.162-6.381-10.162-6.391,0-7.374,4.841-7.374,9.84V59.17H24.426V20.844H36.206v5.237h.166c1.639-3.013,5.645-6.189,11.62-6.189,12.434,0,14.732,7.938,14.732,18.258C62.724,38.15,62.724,59.17,62.724,59.17Z" transform="translate(706 11958)"/>
  </g>
</svg>
