<svg xmlns="http://www.w3.org/2000/svg" width="248.515" height="205.853" viewBox="0 0 248.515 205.853">
  <g id="Group_12" data-name="Group 12" transform="translate(-648 -2875)">
    <path id="Union_5" data-name="Union 5" d="M248.07,262.891a103.911,103.911,0,0,0,30.283-68.719h17.47l19.217,19.22,5.824-5.824-17.47-17.47,17.47-17.47-5.824-5.824-19.218,19.218h-17.47a103.144,103.144,0,1,0-30.283,76.864ZM80.353,190.1a94.83,94.83,0,0,1,189.556-4.364H244.867a68.712,68.712,0,0,0-20.382-45.423,70.014,70.014,0,1,0,20.382,53.579h25.042a92.894,92.894,0,0,1-27.663,62.6,95.626,95.626,0,0,1-66.967,27.95,92.613,92.613,0,0,1-66.972-27.371A95.656,95.656,0,0,1,80.352,190.1Zm71.63-23.3a32.943,32.943,0,0,0,46.588,46.588,32.461,32.461,0,0,0,9.318-19.216h29.118a61.563,61.563,0,1,1,0-8.155H207.888a32.447,32.447,0,0,0-9.318-19.216,33.039,33.039,0,0,0-46.587,0Zm47.752,27.371a24.962,24.962,0,0,1-6.987,13.394,25.333,25.333,0,0,1-34.94,0,23.239,23.239,0,0,1-6.988-17.47,24.654,24.654,0,0,1,6.988-17.47,23.239,23.239,0,0,1,17.47-6.988,24.655,24.655,0,0,1,17.47,6.988,24.956,24.956,0,0,1,6.987,13.394H175.277v8.152Z" transform="translate(968.864 3168.021) rotate(180)" fill="#24292e"/>
  </g>
</svg>
