<svg xmlns="http://www.w3.org/2000/svg" xmlns:xlink="http://www.w3.org/1999/xlink" width="146" height="146" viewBox="0 0 146 146">
  <defs>
    <filter id="Ellipse_2" x="0" y="0" width="146" height="146" filterUnits="userSpaceOnUse">
      <feOffset dy="3" input="SourceAlpha"/>
      <feGaussianBlur stdDeviation="3" result="blur"/>
      <feFlood flood-opacity="0.161"/>
      <feComposite operator="in" in2="blur"/>
      <feComposite in="SourceGraphic"/>
    </filter>
  </defs>
  <g id="Group_11" data-name="Group 11" transform="translate(-518 -11919)">
    <g transform="matrix(1, 0, 0, 1, 518, 11919)" filter="url(#Ellipse_2)">
      <circle id="Ellipse_2-2" data-name="Ellipse 2" cx="64" cy="64" r="64" transform="translate(9 6)" fill="rgba(255,255,255,0.89)"/>
    </g>
    <path id="iconmonstr-reddit-1" d="M68.733,30.005a7.6,7.6,0,0,0-12.879-5.438A39.224,39.224,0,0,0,35.89,18.708L40.137,5.336l11.5,2.695-.017.166a6.248,6.248,0,1,0,.438-2.248l-12.4-2.907a1.06,1.06,0,0,0-1.26.713L33.665,18.668c-8.128.1-15.491,2.285-20.906,5.8A7.564,7.564,0,1,0,3.772,36.509a13.507,13.507,0,0,0-.246,2.454c0,11.2,13.77,20.313,30.7,20.313s30.7-9.113,30.7-20.313a13.6,13.6,0,0,0-.215-2.32,7.541,7.541,0,0,0,4.024-6.638Zm-49.327,5.2a4.529,4.529,0,1,1,4.531,4.508A4.527,4.527,0,0,1,19.406,35.206Zm25.95,13.371c-2.283,2.271-5.865,3.376-10.951,3.376l-.037-.009-.037.009c-5.089,0-8.672-1.105-10.951-3.376a1.062,1.062,0,1,1,1.506-1.5c1.862,1.853,4.952,2.752,9.445,2.752l.037.009.037-.009c4.493,0,7.584-.9,9.445-2.755a1.063,1.063,0,0,1,1.506,1.5Zm-.541-8.864a4.509,4.509,0,1,1,4.528-4.508,4.522,4.522,0,0,1-4.528,4.508Z" transform="translate(556.272 11958)"/>
  </g>
</svg>
