<svg xmlns="http://www.w3.org/2000/svg" xmlns:xlink="http://www.w3.org/1999/xlink" width="390" height="491" viewBox="0 0 390 491">
  <defs>
    <linearGradient id="linear-gradient" x1="1" y1="1" x2="0" y2="0.08" gradientUnits="objectBoundingBox">
      <stop offset="0" stop-color="#bbb"/>
      <stop offset="0" stop-color="#b7b7b7"/>
      <stop offset="0.529" stop-color="#fff"/>
      <stop offset="0.811" stop-color="#bfbfbf"/>
      <stop offset="1" stop-color="#8e8e8e"/>
    </linearGradient>
    <filter id="Rectangle_42" x="43.5" y="51.5" width="131" height="131" filterUnits="userSpaceOnUse">
      <feOffset dy="10" input="SourceAlpha"/>
      <feGaussianBlur stdDeviation="5" result="blur"/>
      <feFlood flood-opacity="0.302"/>
      <feComposite operator="in" in2="blur"/>
      <feComposite in="SourceGraphic"/>
    </filter>
    <filter id="Union_8" x="57.121" y="73" width="103.758" height="92.06" filterUnits="userSpaceOnUse">
      <feOffset dy="10" input="SourceAlpha"/>
      <feGaussianBlur stdDeviation="5" result="blur-2"/>
      <feFlood flood-opacity="0.302"/>
      <feComposite operator="in" in2="blur-2"/>
      <feComposite in="SourceGraphic"/>
    </filter>
    <filter id="Union_11" x="57.121" y="73" width="103.758" height="92.06" filterUnits="userSpaceOnUse">
      <feOffset dy="10" input="SourceAlpha"/>
      <feGaussianBlur stdDeviation="5" result="blur-3"/>
      <feFlood flood-opacity="0.302"/>
      <feComposite operator="in" in2="blur-3"/>
      <feComposite in="SourceGraphic"/>
    </filter>
  </defs>
  <g id="Group_19" data-name="Group 19" transform="translate(-958.5 -4289.5)">
    <rect id="Rectangle_39" data-name="Rectangle 39" width="387" height="488" transform="translate(960 4291)" fill="#090e13" stroke="#1c2027" stroke-width="3"/>
    <text id="A_new_gaming_experience_with_real_ownership_value" data-name="A new gaming experience with real ownership &amp; value" transform="translate(1017 4483)" fill="#fff" font-size="26" font-family="Jost-Medium, Jost" font-weight="500"><tspan x="0" y="28">A new gaming </tspan><tspan x="0" y="66">experience with real </tspan><tspan x="0" y="104">ownership &amp; value</tspan></text>
    <text id="As_they_play_online_gamers_may_bring_or_transfer_their_assets_from_game_to_game_community_to_community_increasing_the_value_of_their_digital_wallet." data-name="As they play, online gamers may bring or transfer their assets from game to game, community to community, increasing the value of their digital wallet." transform="translate(1017 4633)" fill="#838587" font-size="16" font-family="Jost-Regular, Jost"><tspan x="0" y="17">As they play, online gamers may bring or </tspan><tspan x="0" y="40">transfer their assets from game to game, </tspan><tspan x="0" y="63">community to community, increasing the </tspan><tspan x="0" y="86">value of their digital wallet.</tspan></text>
    <g transform="matrix(1, 0, 0, 1, 958.5, 4289.5)" filter="url(#Rectangle_42)">
      <rect id="Rectangle_42-2" data-name="Rectangle 42" width="101" height="101" transform="translate(58.5 56.5)" opacity="0.17" fill="url(#linear-gradient)"/>
    </g>
    <g transform="matrix(1, 0, 0, 1, 958.5, 4289.5)" filter="url(#Union_8)">
      <path id="Union_8-2" data-name="Union 8" d="M226.926,95.56a26.128,26.128,0,0,1-14.62-3.96,15.476,15.476,0,0,1-6.893-9.223,16.274,16.274,0,0,1-13.751-26.359l7.523-9.473a16.3,16.3,0,0,1,4.557-3.935,13.539,13.539,0,0,1,1.489-4.44c1.518-2.842,3.714-4.284,6.527-4.284a7.2,7.2,0,0,1,3.014.821,9.421,9.421,0,0,1,2.505,1.64,7.262,7.262,0,0,1,4.886-1.712,11.236,11.236,0,0,1,5.367,1.206,7.341,7.341,0,0,1,2.316,1.907,7.842,7.842,0,0,1,4.141-3.8,8.706,8.706,0,0,1,6.618.482,7.7,7.7,0,0,1,4.609,6.006.965.965,0,0,1,.018.187V41.71c.329.145.662.3.99.474a16.416,16.416,0,0,1,5.852,5.031l6.774,9.476a16.9,16.9,0,0,1,2.04,3.8,1.141,1.141,0,0,1,.052.131.9.9,0,0,1,.027.088,16.325,16.325,0,0,1-6,18.678,16.194,16.194,0,0,1-6.712,2.821c-.021.064-.046.13-.068.2a.71.71,0,0,1-.033.081c-2.3,5.152-4.993,8.679-8.01,10.483a17.155,17.155,0,0,1-5.74,2.048,42.745,42.745,0,0,1-7.474.544ZM207.42,82.135a13.415,13.415,0,0,0,5.993,7.8,24.167,24.167,0,0,0,13.513,3.628,41.117,41.117,0,0,0,7.116-.507,15.175,15.175,0,0,0,5.066-1.8c2.649-1.584,5.069-4.8,7.192-9.543.09-.257.178-.507.268-.748.7-1.925,1.278-3.466,1.731-4.578a13.207,13.207,0,0,1,3.565-5.313c1.981-1.6,3.427-2.859,4.3-3.737,2.049-2.06,2.355-3.141,2.355-3.6a6.73,6.73,0,0,0-.321-2.183,3.637,3.637,0,0,0-.9-1.461,4.929,4.929,0,0,0-3.671-1.224,9.16,9.16,0,0,0-6.315,2.455,7.743,7.743,0,0,0-2.837,6.031,1,1,0,0,1-1.117.992,9.986,9.986,0,0,0-3.507.3,13.885,13.885,0,0,0-3.918,1.619,10.667,10.667,0,0,0-3.309,2.961.361.361,0,0,1-.03.04,2.222,2.222,0,0,0-.145.217c-.005.011-.012.02-.017.029a.093.093,0,0,1-.014.021,8.086,8.086,0,0,0-1.236,3.646,1,1,0,0,1-2-.185,10.132,10.132,0,0,1,1.2-3.953l-.314-.444c-3.083-2.761-6.234-2.745-9.9.051l-2.845,3.585a15.918,15.918,0,0,1-9.9,5.9Zm-3.8-37.067a14.414,14.414,0,0,0-2.861,2.718l-7.519,9.469a14.212,14.212,0,0,0,2.356,20.05,13.729,13.729,0,0,0,10.417,3.018,1.382,1.382,0,0,1,.172-.025,13.845,13.845,0,0,0,9.568-5.305l2.916-3.677a.994.994,0,0,1,.172-.17c4.465-3.448,8.843-3.43,12.664.052a1.151,1.151,0,0,1,.091.1,13.377,13.377,0,0,1,3.3-2.734,15.928,15.928,0,0,1,4.48-1.85,13.173,13.173,0,0,1,3.15-.408,9.819,9.819,0,0,1,3.454-6.468,11.223,11.223,0,0,1,7.652-2.963,8.329,8.329,0,0,1,3.323.614l-6.51-9.107a14.413,14.413,0,0,0-5.146-4.421,13.642,13.642,0,0,0-1.571-.7c-.148-.057-.282-.106-.416-.15a13.661,13.661,0,0,0-2.22-.551c.093.775.167,1.437.225,1.972.1,1.107.155,1.827.155,2.211a23.618,23.618,0,0,1-.671,6.522l.083-.087a4.122,4.122,0,0,1,2.984-1.219,4.182,4.182,0,0,1,4.2,4.18,4.2,4.2,0,0,1-4.2,4.18,4.081,4.081,0,0,1-2.978-1.229,4.027,4.027,0,0,1-1.221-2.952,4.584,4.584,0,0,1,.044-.638,6.559,6.559,0,0,1-5.635,2.623,6.98,6.98,0,0,1-4.82-2,7.75,7.75,0,0,1-1.75-2.357,8.818,8.818,0,0,1-.972.875,7.1,7.1,0,0,1-4.368,1.736c-2.229,0-4.261-1.145-6.042-3.4a13.984,13.984,0,0,1-.82-1.16,7.842,7.842,0,0,1-1.712,1.789,5.107,5.107,0,0,1-2.835.753,6.173,6.173,0,0,1-5.508-3.225,12.226,12.226,0,0,1-1.628-6.059Zm56.258,20.815a13.828,13.828,0,0,1-2.286,2.861c-.924.928-2.424,2.234-4.455,3.879a11.283,11.283,0,0,0-2.978,4.519c-.306.753-.674,1.709-1.1,2.858a14.5,14.5,0,0,0,4.745-2.24,13.681,13.681,0,0,0,5.848-9.249,15.174,15.174,0,0,0,.225-2.628ZM243.862,53.955a2.106,2.106,0,0,0-1.566.636,2.077,2.077,0,0,0-.629,1.547,2.047,2.047,0,0,0,.634,1.54,2.093,2.093,0,0,0,1.561.644,2.2,2.2,0,0,0,2.193-2.184,2.179,2.179,0,0,0-2.192-2.184Zm-15.069-2.683a5.811,5.811,0,0,0,1.822,3.386,4.968,4.968,0,0,0,3.455,1.469,4.461,4.461,0,0,0,4.7-3.127,20.012,20.012,0,0,0,.691-6.257c0-.218-.025-.744-.146-2.014-.073-.7-.182-1.64-.323-2.779a1,1,0,0,1,.013-.323,1.046,1.046,0,0,1-.018-.272,1,1,0,0,1,1.074-.922,15.774,15.774,0,0,1,3.161.56v-.267a5.718,5.718,0,0,0-3.421-4.46,6.705,6.705,0,0,0-5.116-.441,6.223,6.223,0,0,0-3.435,3.6c-.066.138-.122.263-.175.384-.011.034-.024.067-.036.1a30.232,30.232,0,0,0-1.713,4.718,20.813,20.813,0,0,0-.647,5.236,8.5,8.5,0,0,0,.109,1.377.249.249,0,0,1,0,.033Zm-12.444-1.707a10.988,10.988,0,0,0,1.35,2.179c1.4,1.772,2.859,2.636,4.461,2.636a5.179,5.179,0,0,0,3.126-1.308,4.564,4.564,0,0,0,1.487-1.745,10.6,10.6,0,0,1-.1-1.466,22.841,22.841,0,0,1,.708-5.728,30,30,0,0,1,1.472-4.224,1,1,0,0,1-.119-.184,4.927,4.927,0,0,0-2.164-2.128,9.269,9.269,0,0,0-4.411-.963,5.2,5.2,0,0,0-4.135,1.781,7,7,0,0,0-.98,1.437A11.273,11.273,0,0,0,216,42.793a16.951,16.951,0,0,0-.354,3.573,7.75,7.75,0,0,0,.7,3.171l.012.028Zm-10.68-6.229c-.038.38-.057.769-.057,1.159a10.639,10.639,0,0,0,1.346,5.6,4.228,4.228,0,0,0,3.795,2.265,3.158,3.158,0,0,0,1.733-.424,9.8,9.8,0,0,0,1.8-2.1,9.6,9.6,0,0,1-.652-3.462,18.911,18.911,0,0,1,.4-3.991,13.271,13.271,0,0,1,1.234-3.454,9.307,9.307,0,0,1,.663-1.088,7.337,7.337,0,0,0-2.023-1.323,5.406,5.406,0,0,0-2.152-.628c-2.041,0-3.6,1.056-4.756,3.227a11.446,11.446,0,0,0-1.331,4.225Zm-1.8,29.775a3.416,3.416,0,0,1-2.49-1.029,3.366,3.366,0,0,1-1.021-2.466V67h-2.632a3.376,3.376,0,0,1-2.483-1.034,3.332,3.332,0,0,1-1.026-2.459,3.5,3.5,0,0,1,3.51-3.494h2.632V57.387a3.405,3.405,0,0,1,1.016-2.472,3.452,3.452,0,0,1,2.5-1.022,3.5,3.5,0,0,1,3.511,3.494v2.621h2.633a3.477,3.477,0,0,1,3.511,3.494,3.361,3.361,0,0,1-1.021,2.465A3.412,3.412,0,0,1,210.014,67h-2.635v2.62a3.519,3.519,0,0,1-3.509,3.494ZM197.727,62a1.5,1.5,0,0,0-1.5,1.5,1.382,1.382,0,0,0,.44,1.048,1.406,1.406,0,0,0,1.065.45h3.636a1,1,0,0,1,1,1v3.618a1.407,1.407,0,0,0,.433,1.056,1.433,1.433,0,0,0,1.071.444,1.519,1.519,0,0,0,1.5-1.5V66a1,1,0,0,1,1-1h3.636a1.431,1.431,0,0,0,1.07-.444,1.4,1.4,0,0,0,.434-1.054,1.477,1.477,0,0,0-1.5-1.5h-3.636a1,1,0,0,1-1-1v-3.62a1.5,1.5,0,0,0-1.5-1.5,1.45,1.45,0,0,0-1.077.437,1.427,1.427,0,0,0-.428,1.058v3.618a1,1,0,0,1-1,1h-3.635ZM235.4,66.995a4.086,4.086,0,0,1-2.979-1.228,4.2,4.2,0,0,1,0-5.913.056.056,0,0,1,.009-.009,4.24,4.24,0,0,1,5.939,0,4.046,4.046,0,0,1,1.234,2.965,4.205,4.205,0,0,1-4.2,4.18Zm-1.562-5.732a2.087,2.087,0,0,0-.632,1.552,2.051,2.051,0,0,0,.632,1.54A2.09,2.09,0,0,0,235.4,65a2.185,2.185,0,0,0,1.547-3.737,2.07,2.07,0,0,0-1.547-.631,2.11,2.11,0,0,0-1.562.632Z" transform="translate(-116 44.5)" fill="url(#linear-gradient)"/>
    </g>
    <g transform="matrix(1, 0, 0, 1, 958.5, 4289.5)" filter="url(#Union_11)">
      <path id="Union_11-2" data-name="Union 11" d="M226.926,95.56a26.128,26.128,0,0,1-14.62-3.96,15.476,15.476,0,0,1-6.893-9.223,16.274,16.274,0,0,1-13.751-26.359l7.523-9.473a16.3,16.3,0,0,1,4.557-3.935,13.539,13.539,0,0,1,1.489-4.44c1.518-2.842,3.714-4.284,6.527-4.284a7.2,7.2,0,0,1,3.014.821,9.421,9.421,0,0,1,2.505,1.64,7.262,7.262,0,0,1,4.886-1.712,11.236,11.236,0,0,1,5.367,1.206,7.341,7.341,0,0,1,2.316,1.907,7.842,7.842,0,0,1,4.141-3.8,8.706,8.706,0,0,1,6.618.482,7.7,7.7,0,0,1,4.609,6.006.965.965,0,0,1,.018.187V41.71c.329.145.662.3.99.474a16.416,16.416,0,0,1,5.852,5.031l6.774,9.476a16.9,16.9,0,0,1,2.04,3.8,1.141,1.141,0,0,1,.052.131.9.9,0,0,1,.027.088,16.325,16.325,0,0,1-6,18.678,16.194,16.194,0,0,1-6.712,2.821c-.021.064-.046.13-.068.2a.71.71,0,0,1-.033.081c-2.3,5.152-4.993,8.679-8.01,10.483a17.155,17.155,0,0,1-5.74,2.048,42.745,42.745,0,0,1-7.474.544ZM207.42,82.135a13.415,13.415,0,0,0,5.993,7.8,24.167,24.167,0,0,0,13.513,3.628,41.117,41.117,0,0,0,7.116-.507,15.175,15.175,0,0,0,5.066-1.8c2.649-1.584,5.069-4.8,7.192-9.543.09-.257.178-.507.268-.748.7-1.925,1.278-3.466,1.731-4.578a13.207,13.207,0,0,1,3.565-5.313c1.981-1.6,3.427-2.859,4.3-3.737,2.049-2.06,2.355-3.141,2.355-3.6a6.73,6.73,0,0,0-.321-2.183,3.637,3.637,0,0,0-.9-1.461,4.929,4.929,0,0,0-3.671-1.224,9.16,9.16,0,0,0-6.315,2.455,7.743,7.743,0,0,0-2.837,6.031,1,1,0,0,1-1.117.992,9.986,9.986,0,0,0-3.507.3,13.885,13.885,0,0,0-3.918,1.619,10.667,10.667,0,0,0-3.309,2.961.361.361,0,0,1-.03.04,2.222,2.222,0,0,0-.145.217c-.005.011-.012.02-.017.029a.093.093,0,0,1-.014.021,8.086,8.086,0,0,0-1.236,3.646,1,1,0,0,1-2-.185,10.132,10.132,0,0,1,1.2-3.953l-.314-.444c-3.083-2.761-6.234-2.745-9.9.051l-2.845,3.585a15.918,15.918,0,0,1-9.9,5.9Zm-3.8-37.067a14.414,14.414,0,0,0-2.861,2.718l-7.519,9.469a14.212,14.212,0,0,0,2.356,20.05,13.729,13.729,0,0,0,10.417,3.018,1.382,1.382,0,0,1,.172-.025,13.845,13.845,0,0,0,9.568-5.305l2.916-3.677a.994.994,0,0,1,.172-.17c4.465-3.448,8.843-3.43,12.664.052a1.151,1.151,0,0,1,.091.1,13.377,13.377,0,0,1,3.3-2.734,15.928,15.928,0,0,1,4.48-1.85,13.173,13.173,0,0,1,3.15-.408,9.819,9.819,0,0,1,3.454-6.468,11.223,11.223,0,0,1,7.652-2.963,8.329,8.329,0,0,1,3.323.614l-6.51-9.107a14.413,14.413,0,0,0-5.146-4.421,13.642,13.642,0,0,0-1.571-.7c-.148-.057-.282-.106-.416-.15a13.661,13.661,0,0,0-2.22-.551c.093.775.167,1.437.225,1.972.1,1.107.155,1.827.155,2.211a23.618,23.618,0,0,1-.671,6.522l.083-.087a4.122,4.122,0,0,1,2.984-1.219,4.182,4.182,0,0,1,4.2,4.18,4.2,4.2,0,0,1-4.2,4.18,4.081,4.081,0,0,1-2.978-1.229,4.027,4.027,0,0,1-1.221-2.952,4.584,4.584,0,0,1,.044-.638,6.559,6.559,0,0,1-5.635,2.623,6.98,6.98,0,0,1-4.82-2,7.75,7.75,0,0,1-1.75-2.357,8.818,8.818,0,0,1-.972.875,7.1,7.1,0,0,1-4.368,1.736c-2.229,0-4.261-1.145-6.042-3.4a13.984,13.984,0,0,1-.82-1.16,7.842,7.842,0,0,1-1.712,1.789,5.107,5.107,0,0,1-2.835.753,6.173,6.173,0,0,1-5.508-3.225,12.226,12.226,0,0,1-1.628-6.059Zm56.258,20.815a13.828,13.828,0,0,1-2.286,2.861c-.924.928-2.424,2.234-4.455,3.879a11.283,11.283,0,0,0-2.978,4.519c-.306.753-.674,1.709-1.1,2.858a14.5,14.5,0,0,0,4.745-2.24,13.681,13.681,0,0,0,5.848-9.249,15.174,15.174,0,0,0,.225-2.628ZM243.862,53.955a2.106,2.106,0,0,0-1.566.636,2.077,2.077,0,0,0-.629,1.547,2.047,2.047,0,0,0,.634,1.54,2.093,2.093,0,0,0,1.561.644,2.2,2.2,0,0,0,2.193-2.184,2.179,2.179,0,0,0-2.192-2.184Zm-15.069-2.683a5.811,5.811,0,0,0,1.822,3.386,4.968,4.968,0,0,0,3.455,1.469,4.461,4.461,0,0,0,4.7-3.127,20.012,20.012,0,0,0,.691-6.257c0-.218-.025-.744-.146-2.014-.073-.7-.182-1.64-.323-2.779a1,1,0,0,1,.013-.323,1.046,1.046,0,0,1-.018-.272,1,1,0,0,1,1.074-.922,15.774,15.774,0,0,1,3.161.56v-.267a5.718,5.718,0,0,0-3.421-4.46,6.705,6.705,0,0,0-5.116-.441,6.223,6.223,0,0,0-3.435,3.6c-.066.138-.122.263-.175.384-.011.034-.024.067-.036.1a30.232,30.232,0,0,0-1.713,4.718,20.813,20.813,0,0,0-.647,5.236,8.5,8.5,0,0,0,.109,1.377.249.249,0,0,1,0,.033Zm-12.444-1.707a10.988,10.988,0,0,0,1.35,2.179c1.4,1.772,2.859,2.636,4.461,2.636a5.179,5.179,0,0,0,3.126-1.308,4.564,4.564,0,0,0,1.487-1.745,10.6,10.6,0,0,1-.1-1.466,22.841,22.841,0,0,1,.708-5.728,30,30,0,0,1,1.472-4.224,1,1,0,0,1-.119-.184,4.927,4.927,0,0,0-2.164-2.128,9.269,9.269,0,0,0-4.411-.963,5.2,5.2,0,0,0-4.135,1.781,7,7,0,0,0-.98,1.437A11.273,11.273,0,0,0,216,42.793a16.951,16.951,0,0,0-.354,3.573,7.75,7.75,0,0,0,.7,3.171l.012.028Zm-10.68-6.229c-.038.38-.057.769-.057,1.159a10.639,10.639,0,0,0,1.346,5.6,4.228,4.228,0,0,0,3.795,2.265,3.158,3.158,0,0,0,1.733-.424,9.8,9.8,0,0,0,1.8-2.1,9.6,9.6,0,0,1-.652-3.462,18.911,18.911,0,0,1,.4-3.991,13.271,13.271,0,0,1,1.234-3.454,9.307,9.307,0,0,1,.663-1.088,7.337,7.337,0,0,0-2.023-1.323,5.406,5.406,0,0,0-2.152-.628c-2.041,0-3.6,1.056-4.756,3.227a11.446,11.446,0,0,0-1.331,4.225Zm-1.8,29.775a3.416,3.416,0,0,1-2.49-1.029,3.366,3.366,0,0,1-1.021-2.466V67h-2.632a3.376,3.376,0,0,1-2.483-1.034,3.332,3.332,0,0,1-1.026-2.459,3.5,3.5,0,0,1,3.51-3.494h2.632V57.387a3.405,3.405,0,0,1,1.016-2.472,3.452,3.452,0,0,1,2.5-1.022,3.5,3.5,0,0,1,3.511,3.494v2.621h2.633a3.477,3.477,0,0,1,3.511,3.494,3.361,3.361,0,0,1-1.021,2.465A3.412,3.412,0,0,1,210.014,67h-2.635v2.62a3.519,3.519,0,0,1-3.509,3.494ZM197.727,62a1.5,1.5,0,0,0-1.5,1.5,1.382,1.382,0,0,0,.44,1.048,1.406,1.406,0,0,0,1.065.45h3.636a1,1,0,0,1,1,1v3.618a1.407,1.407,0,0,0,.433,1.056,1.433,1.433,0,0,0,1.071.444,1.519,1.519,0,0,0,1.5-1.5V66a1,1,0,0,1,1-1h3.636a1.431,1.431,0,0,0,1.07-.444,1.4,1.4,0,0,0,.434-1.054,1.477,1.477,0,0,0-1.5-1.5h-3.636a1,1,0,0,1-1-1v-3.62a1.5,1.5,0,0,0-1.5-1.5,1.45,1.45,0,0,0-1.077.437,1.427,1.427,0,0,0-.428,1.058v3.618a1,1,0,0,1-1,1h-3.635ZM235.4,66.995a4.086,4.086,0,0,1-2.979-1.228,4.2,4.2,0,0,1,0-5.913.056.056,0,0,1,.009-.009,4.24,4.24,0,0,1,5.939,0,4.046,4.046,0,0,1,1.234,2.965,4.205,4.205,0,0,1-4.2,4.18Zm-1.562-5.732a2.087,2.087,0,0,0-.632,1.552,2.051,2.051,0,0,0,.632,1.54A2.09,2.09,0,0,0,235.4,65a2.185,2.185,0,0,0,1.547-3.737,2.07,2.07,0,0,0-1.547-.631,2.11,2.11,0,0,0-1.562.632Z" transform="translate(-116 44.5)" fill="url(#linear-gradient)"/>
    </g>
  </g>
</svg>
