<svg xmlns="http://www.w3.org/2000/svg" width="268.258" height="221.527" viewBox="0 0 268.258 221.527">
  <g id="Group_13" data-name="Group 13" transform="translate(-1461.742 -2867)">
    <g id="download_5_" data-name="download (5)" transform="translate(1313.255 2678.9)">
      <path id="Path_7" data-name="Path 7" d="M331.464,376.2h0a3.33,3.33,0,0,1,2.947,1.886,3.385,3.385,0,0,1-.413,3.478l-14.383,17.508a3.246,3.246,0,0,1-5.011-4.126l14.383-17.508h0a3.186,3.186,0,0,1,2.476-1.238Zm38.08,0h0a3.245,3.245,0,0,1,2.535,1.179l14.383,17.566a3.246,3.246,0,0,1-5.011,4.126l-14.442-17.508a3.37,3.37,0,0,1-.413-3.478,3.44,3.44,0,0,1,2.947-1.886Zm-19.04,4.952h0a3.246,3.246,0,0,1,3.242,3.3v21.87a3.272,3.272,0,1,1-6.543,0v-21.87h0a3.3,3.3,0,0,1,3.3-3.3Zm19.04-159.631h0a3.33,3.33,0,0,1-2.947-1.886,3.385,3.385,0,0,1,.413-3.478l14.383-17.508a3.246,3.246,0,0,1,5.011,4.126L372.02,220.286h0a3.1,3.1,0,0,1-2.476,1.238Zm-38.08,0h0a3.245,3.245,0,0,1-2.535-1.179L314.6,202.778a3.246,3.246,0,0,1,5.011-4.126L334,216.159a3.37,3.37,0,0,1,.413,3.478,3.44,3.44,0,0,1-2.947,1.886Zm19.04-4.952h0a3.246,3.246,0,0,1-3.242-3.3V191.4a3.272,3.272,0,1,1,6.543,0v21.87h0a3.3,3.3,0,0,1-3.3,3.3Z" transform="translate(-67.902)" fill="#24292e"/>
      <g id="Group_1" data-name="Group 1" transform="translate(148.487 236.113)">
        <path id="Path_8" data-name="Path 8" d="M415.942,330.119a169.048,169.048,0,0,0-76.279-51.167c-65.963-23.108-145.484-2.712-190.4,51.167a3.217,3.217,0,0,0,0,4.185h0c32.127,38.847,82.056,60.009,133.93,60.716h0C334.77,393.96,384.11,372.915,416,334.3A3.218,3.218,0,0,0,415.942,330.119Zm-22.872-13.44a253.911,253.911,0,0,0-74.157-26.409h0c-51.226-9.432-99.5,1.592-146.78,26.409C233.026,263.154,332.177,263.154,393.07,316.679ZM156.689,333.007h0a280,280,0,0,1,71.268-31.773h0c-16.564,26.762-6.543,66.493,20.1,83.529A163.813,163.813,0,0,1,156.689,333.007Zm116.953,54.881h0c-40.2-5.541-61.542-56.708-36.371-88.894a194.739,194.739,0,0,1,90.662,0h0C357.465,339.315,323.217,395.2,273.641,387.888Zm43.5-3.124c26.644-17.036,36.666-56.767,20.1-83.529h0a280,280,0,0,1,71.268,31.773A163.468,163.468,0,0,1,317.145,384.764Z" transform="translate(-148.487 -269.55)" fill="#24292e"/>
        <path id="Path_9" data-name="Path 9" d="M328.8,356.885a26.921,26.921,0,0,0,8.076,19.689,27.207,27.207,0,0,0,19.807,7.84h0a27.025,27.025,0,0,0,19.807-7.9,27.33,27.33,0,0,0,8.017-19.748C383.148,319.925,330.035,319.925,328.8,356.885Zm27.823,20.985c-27.116.295-29.238-41.028,0-42.384C385.977,336.9,383.619,378.165,356.621,377.87Z" transform="translate(-222.507 -294.017)" fill="#24292e"/>
      </g>
    </g>
  </g>
</svg>
